<?xml version="1.0" encoding="UTF-8" standalone="no"?>
<svg width="1178px" height="201px" viewBox="0 0 1178 201" version="1.1" xmlns="http://www.w3.org/2000/svg" xmlns:xlink="http://www.w3.org/1999/xlink">
    <!-- Generator: Sketch 3.6.1 (26313) - http://www.bohemiancoding.com/sketch -->
    <title>Slice 1</title>
    <desc>Created with Sketch.</desc>
    <defs>
        <linearGradient x1="50.0017117%" y1="100.06306%" x2="50.0017117%" y2="0.00870646766%" id="linearGradient-1">
            <stop stop-color="#74A2FB" offset="0%"></stop>
            <stop stop-color="#3C7EFB" offset="100%"></stop>
        </linearGradient>
    </defs>
    <g id="Page-1" stroke="none" stroke-width="1" fill="none" fill-rule="evenodd">
        <g id="decor-top" transform="translate(-2.000000, -2.000000)">
            <g id="Page-1">
                <g id="Group">
                    <g id="Layer_4" fill="url(#linearGradient-1)">
                        <path d="M0,0 L1181,0 L1181,68.1333008 L1181,81 L0,81 L0,0 Z" id="XMLID_1_"></path>
                    </g>
                    <g id="Layer_3" transform="translate(0.000000, 70.000000)" fill="#DBE7FE">
                        <path d="M0,74.88494 C0,74.88494 180.204511,120.015597 240.432267,120.21529 C293.382902,120.414984 399.284171,107.235234 452.234806,109.931092 C500.493613,112.32741 594.713187,127.104705 642.971993,129.800563 C705.976546,133.39504 831.506893,109.332012 894.319943,109.931092 C929.652283,110.330478 951.866654,102.442598 1054.60812,94.7544108 C1089.74896,92.0585529 1180.99609,71.8839722 1180.99609,71.8839722 C1180.84206,48.587484 1181,0.0998465867 1181,0.0998465867 L0,-1.42108547e-14 L0,74.88494 Z" id="XMLID_98_"></path>
                    </g>
                    <g id="Layer_2" transform="translate(0.000000, 11.000000)">
                        <path d="M0,59 L1174.87488,59 C1174.87488,59 1019.27816,0.19982957 826.146736,0.300000218 C748.300503,0.300000218 587.437439,38.6653584 440.649893,40.1679182 C384.156317,40.768942 312.342449,12.9215019 216.399122,11.6192835 C105.614262,10.1167237 0,59 0,59 L0,59 L0,59 Z" id="XMLID_2_" fill="#84ACFC"></path>
                        <path d="M1181,57.4 C1180.88443,57.4 1179.13361,57.7687201 1177.88542,58.0770068 C1151.31987,64.6383561 938.39841,116.719812 866.034765,118.5 C796.074392,120.2 657.876337,86.5 587.724554,87.5 C528.004619,88.3 409.617504,112.3 349.897569,110.8 C261.753241,108.5 0.574230146,59 0.574230146,59 L1181,57.4 Z" id="XMLID_3_" fill="#BED3FD"></path>
                    </g>
                </g>
            </g>
        </g>
    </g>
</svg>